<?xml version="1.0" standalone="no"?>
<!DOCTYPE svg PUBLIC "-//W3C//DTD SVG 1.1//EN" "http://www.w3.org/Graphics/SVG/1.1/DTD/svg11.dtd" >
<svg xmlns="http://www.w3.org/2000/svg">
<metadata>
Created by FontForge 20120731 at Fri Jun 24 18:51:07 2016
 By admin
</metadata>
<defs>
<font id="iconfont" horiz-adv-x="1024" >
  <font-face 
    font-family="iconfont"
    font-weight="500"
    font-stretch="normal"
    units-per-em="1024"
    panose-1="2 0 6 3 0 0 0 0 0 0"
    ascent="896"
    descent="-128"
    x-height="792"
    bbox="0 -212 1449 896"
    underline-thickness="50"
    underline-position="-100"
    unicode-range="U+0078-F000B"
  />
<missing-glyph horiz-adv-x="374" 
d="M34 0v682h272v-682h-272zM68 34h204v614h-204v-614z" />
    <glyph glyph-name=".notdef" horiz-adv-x="374" 
d="M34 0v682h272v-682h-272zM68 34h204v614h-204v-614z" />
    <glyph glyph-name=".null" horiz-adv-x="0" 
 />
    <glyph glyph-name="nonmarkingreturn" horiz-adv-x="341" 
 />
    <glyph glyph-name="x" unicode="x" horiz-adv-x="1001" 
d="M281 543q-27 -1 -53 -1h-83q-18 0 -36.5 -6t-32.5 -18.5t-23 -32t-9 -45.5v-76h912v41q0 16 -0.5 30t-0.5 18q0 13 -5 29t-17 29.5t-31.5 22.5t-49.5 9h-133v-97h-438v97zM955 310v-52q0 -23 0.5 -52t0.5 -58t-10.5 -47.5t-26 -30t-33 -16t-31.5 -4.5q-14 -1 -29.5 -0.5
t-29.5 0.5h-32l-45 128h-439l-44 -128h-29h-34q-20 0 -45 1q-25 0 -41 9.5t-25.5 23t-13.5 29.5t-4 30v167h911zM163 247q-12 0 -21 -8.5t-9 -21.5t9 -21.5t21 -8.5q13 0 22 8.5t9 21.5t-9 21.5t-22 8.5zM316 123q-8 -26 -14 -48q-5 -19 -10.5 -37t-7.5 -25t-3 -15t1 -14.5
t9.5 -10.5t21.5 -4h37h67h81h80h64h36q23 0 34 12t2 38q-5 13 -9.5 30.5t-9.5 34.5q-5 19 -11 39h-368zM336 498v228q0 11 2.5 23t10 21.5t20.5 15.5t34 6h188q31 0 51.5 -14.5t20.5 -52.5v-227h-327z" />
    <glyph glyph-name="uniE600" unicode="&#xe600;" horiz-adv-x="1450" 
d="M1235 252l-38 217l-458 -274l-450 274l-37 -234v1q-8 -14 -8 -27q0 -40 91 -122t203.5 -148.5t167.5 -66.5t186 66.5t240.5 148.5t109.5 122zM742 243l-705 428l707 225l705 -222zM42 633l-42 -468l42 -141l39 141z" />
    <glyph glyph-name="uniE607" unicode="&#xe607;" 
d="M602 210l6 90q-32 -26 -96 -64l45 -134q3 -10 7 -15t12 -5q19 0 19 20l7 89l12 7q7 0 7 12q-2 0 -6 1.5t-7.5 1.5t-5.5 -3zM557 422l-90 44q7 0 7 13q0 7 -13 7l-13 -13l-90 51q-5 4 -12.5 1.5t-12.5 -7.5q-7 -13 6 -26l115 -141q-76 -57 -108 -89l-84 25
q-7 0 -10.5 -0.5t-6 -3t-2.5 -9.5q32 -32 45 -57q6 -12 12 -29.5t10 -29.5l4 -12q7 0 10.5 0.5t6 3.5t2.5 9l13 51h6l136 65q260 131 250 185q0 4 -2 6q-9 20 -38 17.5t-65 -19t-76 -42.5zM512 748q-187 0 -317.5 -130.5t-130.5 -317.5t130.5 -317.5t317.5 -130.5
t317.5 130.5t130.5 317.5t-130.5 317.5t-317.5 130.5zM512 -58q-98 0 -180.5 47.5t-130 130t-47.5 180.5t47.5 180.5t130 130t180.5 47.5t180.5 -47.5t130 -130t47.5 -180.5t-47.5 -180.5t-130 -130t-180.5 -47.5z" />
    <glyph glyph-name="uniE60A" unicode="&#xe60a;" 
d="M402 409l-2 -2q1 0 2 -1q3 3 7 6q-3 -2 -7 -3zM513 877q-101 0 -192.5 -39t-158 -105.5t-106 -158.5t-39.5 -193t39.5 -193t106 -158.5t158 -105.5t192.5 -39t193 39t158.5 105.5t106 158.5t39.5 193t-39.5 193t-106 158.5t-158.5 105.5t-193 39zM851 28l-1 2l-3 9l-6 13
l-5 9l-1 4l-4 6l-3 6l-6 10l-4 7l-5 6l-10 12l-10 11l-32 28q-2 -1 -3 -1q-3 -1 -31 23q-14 -12 -25 -13q-9 -1 -84.5 60.5t-146.5 123t-71 62.5h2l-2 1l2 2q-53 -21 -110 -5q-22 6 -42.5 18.5t-29.5 22.5l-10 10q-29 38 -38 78t0 72.5t25.5 57t37.5 39.5q37 25 73.5 32.5
t63.5 0.5t48.5 -18t32.5 -21l10 -11q4 -3 9 -9.5t16.5 -27t17 -41.5t4 -51.5t-16.5 -59.5q244 -261 255 -279q5 -10 -7 -28q24 -27 25 -30q0 -1 -1 -3l7 -6l5 -5l4 -4l6 -5l7 -7l8 -7l8 -9l6 -8l7 -10l7 -10l8 -14l6 -12l5 -11l7 -19zM214 668q-23 -31 -31 -58
q-5 -19 -5.5 -37t1.5 -27l2 -9q19 63 33 78q-3 32 0 53zM257 665l-20 28l-12 -10q-3 -8 -3.5 -21.5t0.5 -23.5l2 -10zM303 700q-11 4 -23.5 5t-18.5 1h-6l-12 -7l21 -26zM365 727q-21 4 -41 1.5t-35 -8.5l-14 -5q10 0 20.5 -2.5t15.5 -4.5l5 -2q4 3 16 8l23 9zM218 601
q-23 -35 -33 -84q12 -36 29 -53l50 46q-4 3 -10 10.5t-18.5 31.5t-17.5 49zM225 615q12 -67 44 -98l62 57l-67 85l-9 -9q-9 -10 -19 -21t-11 -14zM403 643q-4 5 -11.5 12t-30.5 21.5t-45 19.5q-25 -13 -47 -31l17 -21l34 -42l17 -21zM411 650l38 36q-9 11 -25 20t-27 13
l-11 3q-35 -8 -57 -20q42 -13 82 -52zM269 503l-48 -46q10 -12 26 -22.5t27 -15.5l11 -4q26 3 46 10t27 12l7 6q-23 6 -47 21t-36 27zM376 450l34 25l-73 93l-60 -58q4 -6 12.5 -14.5t34.5 -25t52 -20.5zM460 534q-1 7 -3.5 18t-15 38.5t-31.5 47.5l-66 -64l73 -92
q9 8 20 21t17 22zM466 547q9 14 15.5 32.5t8.5 30.5l2 12q-1 7 -10 22t-18 26l-8 10l-39 -39q14 -14 26.5 -37.5t17.5 -39.5zM377 439q-17 -10 -35 -17.5t-28 -9.5l-10 -3q38 -6 66 -1t44 16l17 10q-9 -1 -23 0l-22 3zM388 447q11 -3 23 -4t19 0h6l-20 25zM460 519
q-18 -27 -37 -44l23 -30l10 10v2q1 2 1.5 5.5t1.5 8.5t1.5 10.5t0.5 12.5v12q0 7 -1 13zM468 469q2 3 5 7t11 17.5t11 28t6 37t-4 43.5q-11 -41 -29 -70q5 -30 0 -63z" />
    <glyph glyph-name="uniE60B" unicode="&#xe60b;" horiz-adv-x="1025" 
d="M901 398q27 -12 43.5 -37t16.5 -56v-217q0 -43 -30 -72.5t-72 -29.5h-181q-42 0 -72 29.5t-30 72.5v217q0 31 16 56t43 37q-1 2 -1 3h-634v-347q0 -42 30 -72t72 -30h819q42 0 72 30t30 72v347h-121q0 -1 -1 -3zM769 468zM697 468q0 30 21 51t51 21t51 -21t21 -51
t-21 -51t-51 -21t-51 21t-21 51zM780 290q-21 0 -36 -13.5t-15 -31.5v-99q0 -18 15 -31t36 -13t36 13t15 31v99q0 18 -15 31.5t-36 13.5zM921 668h-819q-42 0 -72 -30t-30 -72v-54h630q5 38 34 63.5t67 25.5h74q39 0 67.5 -25.5t33.5 -63.5h117v54q0 42 -30 72t-72 30z" />
    <glyph glyph-name="uniE613" unicode="&#xe613;" 
d="M869 -23h-728q-44 0 -77 32.5t-33 76.5v583q0 43 33 76t77 33h728q43 0 76 -33t33 -76v-583q0 -44 -33 -76.5t-76 -32.5zM141 705q-17 0 -27 -10t-10 -26v-583q0 -16 10 -26t27 -10h728q16 0 26 10t10 26v583q0 16 -10 26t-26 10h-728zM789 581q-28 0 -47 -19t-19 -46
q0 -7 1.5 -12t6.5 -13.5t7 -11.5l-117 -109q-3 0 -14 3.5t-15 3.5q-22 0 -36 -14l-102 65v15q0 22 -14.5 36.5t-36.5 14.5q-23 0 -40.5 -15t-17.5 -36q0 -15 7 -22l-117 -117h-14q-28 0 -47 -19t-19 -46t19 -46.5t46.5 -19.5t46.5 19.5t19 46.5q0 14 -14 44l109 109
q4 0 11 -3.5t11 -3.5q22 0 29 7l102 -66q0 -3 -3.5 -10.5t-3.5 -11.5q0 -27 19 -46t46 -19t46.5 19t19.5 46q0 22 -8 30l117 116q4 0 11 -3.5t11 -3.5q27 0 46 19t19 46q0 33 -18.5 53t-46.5 20z" />
    <glyph glyph-name="uniE621" unicode="&#xe621;" 
d="M853.5 343q-25.5 0 -43.5 -9t-26 -21.5t-12 -25t-4 -21.5v-9v-85h-256h-256v85v9q0 6 -4 21t-12 26t-26 20.5t-43.5 9.5t-43.5 -9.5t-26 -20.5t-11.5 -26t-4 -20.5t-0.5 -9.5v-298h427h427v298v9q0 6 -4 21t-12 26t-26 20.5t-43.5 9.5zM299 300v-85h213h213v85q0 3 0.5 9
t5.5 20.5t13 26t25.5 20.5t41.5 9v86q0 4 -1 11.5t-6.5 30t-16 42.5t-33 44.5t-52.5 42.5t-79.5 30t-110.5 12v0v0q-209 0 -276 -131q-22 -44 -23 -82v-86q24 0 41.5 -9t25.5 -20.5t13 -26t5.5 -20.5t0.5 -9z" />
    <glyph glyph-name="uniE623" unicode="&#xe623;" horiz-adv-x="1402" 
d="M857 487q55 19 67 77.5t-25 116.5q-4 -22 -21 -97t-21 -97zM715 251q-10 -11 -3 -17.5t19 0.5q69 56 152 123q-30 3 -53 -2.5t-40 -18.5t-27.5 -25t-24.5 -31.5t-23 -28.5zM1102 511q60 -12 104.5 12.5t57.5 76.5q17 71 -39 85q-60 16 -81 -50q-4 -13 -42 -124zM1086 750
q11 9 28.5 23.5t30.5 24t25 14.5q74 35 136.5 -4t67.5 -121q5 -76 -33.5 -147t-108.5 -115.5t-151 -47.5q-34 -1 -53 -14t-37 -43q-30 -50 -83 -108q-100 -106 -224 -91q-81 9 -156 0q-79 -10 -140 21.5t-119 97.5q-122 137 -142 353q-4 48 -5 139.5t-1 103.5q-1 28 10.5 41
t40.5 13q386 -1 860 0q29 0 42 -12.5t12 -40.5v-87zM1223 91q-21 -63 -88.5 -115t-126.5 -52q-156 -1 -777 0q-68 0 -135 48t-95 119h1222z" />
    <glyph glyph-name="uniE62F" unicode="&#xe62f;" 
d="M512 895q-104 0 -198.5 -40.5t-163 -109t-109 -163.5t-40.5 -198.5t40.5 -198.5t109 -163.5t163 -109t198.5 -40.5t198.5 40.5t163 109t109 163.5t40.5 198.5t-40.5 198.5t-109 163.5t-163 109t-198.5 40.5zM708 455q-23 -13 -42 -17q-10 -2 -16.5 -1.5t-9.5 1.5l-3 2
l-5 17q-5 8 -15 5q-6 -1 -3 -66q0 -7 6.5 -31t16 -54t18.5 -58.5t16 -48.5t7 -21q3 -10 -3 -19v-4q-9 -3 -24 -8.5t-57.5 -14t-81.5 -8.5h-17q-77 4 -143 32q-4 2 -5.5 11t-0.5 11q0 1 7 21t16 48.5t18.5 58.5t16 54t6.5 31q3 65 -3 66q-10 3 -15 -5l-5 -17q-1 -1 -3 -1.5
t-9.5 -1.5t-16.5 1t-19.5 6t-16.5 7l-6 4q1 1 1 3t0.5 7.5t-0.5 9.5q-3 18 -2 48t5 39q14 28 53 30q22 19 61 37q1 0 1 1v1q11 5 20 7l4 -24l53 -53l53 53l4 24q9 -2 20 -7v-1t1 -1q39 -18 61 -37q39 -2 53 -30q4 -9 5 -39t-2 -48q-1 -5 -1 -9.5t1 -7.5z" />
    <glyph glyph-name="uniE63E" unicode="&#xe63e;" 
d="M512 300v0v0v0v0v0v0v0v0v0v0v0v0v0v0v0v0v0v0v0v0v0v0v0v0v0v0v0v0v0v0v0v0v0v0v0v0v0v0v0v0v0v0v0v0v0v0zM512 300v0v0v0v0v0v0v0v0v0v0v0v0v0v0v0v0v0v0v0v0v0zM512 300v0v0v0v0v0v0v0v0v0v0zM512 300v0v0v0v0v0v0v0v0v0zM512 300zM511 812v-1024v1024zM511 812v-1024
v1024z" />
    <glyph glyph-name="uniE642" unicode="&#xe642;" 
d="M397 578q17 -22 8 -43q-26 -13 -34 -26q-13 -18 -35 -18q-16 -4 -43 -13q-13 -8 0 -26q30 -52 69 -65q39 -26 26 -43q-31 -22 -52 -17q-69 21 -69 -5v-21v-57q0 -5 -5 -21q-4 -18 0 -18q4 -87 -4 -129q-26 -31 -39 -5q-9 26 -4 100q4 86 13 117q0 17 -9 21q-13 0 -26 -13
q-91 -78 -147 -73q-27 13 -22 30v22v13q-9 21 0 52q0 13 4 17q5 2 9 0t9 -9q4 -21 21 -21q26 -9 70 21q60 43 78 83q9 34 -9 43q-43 0 -99 -22q-44 -13 -57 17q-5 16 -8 31v34q8 18 30 18t39 8q25 6 60 13q34 0 70 13q68 13 156 -8zM384 742q30 -21 13 -47q-39 -48 -87 -52
q-52 4 -91 -9q-91 -26 -113 9q-17 47 -8 86q13 31 39 9q13 -18 47 4q74 26 200 0zM851 742q17 13 39 0q17 -21 -9 -38q-30 -26 -43 -91q-1 -6 -3.5 -15t-6.5 -25.5t-7 -29.5q-18 -22 13 -30q4 0 26 -9q14 -4 17 -4h30h13q31 -9 61 4q9 9 17 0q9 -4 5 -17q-31 -43 -70 -69
q-43 -22 -73 -9q-45 18 -109 35q-27 4 -60 4q-31 -4 -13 -91q4 -23 4 -52q-4 -117 5 -147q4 -74 -9 -113q0 -17 -26 -26q-26 -13 -26 0q-22 48 -9 113q5 14 5 56q0 53 4 87q4 17 0 34.5t5 60.5q0 5 4 9q13 43 -17 60h-52q-9 -4 -48 -13q-32 -4 -34 -4q-26 -4 -48 -18
q-35 -12 -35 14q-5 21 -8 38q-5 22 26 26q25 0 69 18q9 8 39 8q58 0 143 5q64 4 78 8q21 4 26 26q4 18 -13 26q-147 0 -225 -17q-31 -13 -48 9q-13 17 -13 35q4 34 39 26q4 -13 39 0q70 17 160 8q17 -8 78 -4q8 4 13 34q4 27 -30 27q-5 -5 -39 4l-39 4h-52h-17
q-31 -13 -52 -13q-20 -4 -48 -8q-52 -22 -65 17q-9 17 13 39q9 13 22 0q13 -9 39 4q21 9 134 5q117 0 138 -9t43 8zM557 262q8 8 13 4q4 -4 8 -17q-17 -69 -73 -104q-5 -5 -13 -9q-30 -17 -39 -17q-26 -13 -35 9q-8 8 -8 30q0 9 -5 30q0 30 35 30q9 0 26 9q42 13 52 17
q22 5 39 18zM566 379q17 0 17 -22q-35 -47 -61 -56q-2 -2 -5 -3t-6.5 -3t-5.5 -3q-21 -4 -30 -9q-17 -8 -30 9q-13 35 0 65q4 8 56 17q4 -4 39 0q17 5 26 5zM747 214q-6 37 13 26q18 -13 35 -13q39 -8 108 -39q22 -17 5 -34q-22 -9 -61 -48q-35 -22 -56 4q-39 44 -43 78
q-1 14 -1 26zM747 357q-4 9 0 13q0 4 13 0q17 -9 39 -9q57 -8 74 -34q-9 -31 -17 -39q-13 -9 -35 -9q-61 13 -65 39l-5 13q-8 18 -4 26z" />
    <glyph glyph-name="uniE643" unicode="&#xe643;" 
d="M863 100q17 0 28.5 10t11.5 24v508q0 14 -11.5 24.5t-28.5 10.5h-702q-16 0 -27.5 -10.5t-11.5 -24.5v-508q0 -14 11.5 -24t27.5 -10h702zM863 66h-702q-30 0 -51.5 20t-21.5 48v508q0 29 21.5 49t51.5 20h702q31 0 52 -20t21 -49v-508q0 -28 -21 -48t-52 -20v0zM863 66z
M190 215q-1 47 9 57q1 1 7.5 8t11.5 10.5t19 9t33 8.5q14 2 24.5 6t15.5 7.5t8 9.5t3 7t1 5v4v12q-1 10 -10 16q-18 11 -26 26q-3 5 -9 8q-3 1 -5 2.5t-3 4t-1.5 3.5t-1 4t-0.5 4l-1 28q2 9 7 8q1 0 2.5 0.5t3 2.5t1.5 5q-1 1 -1 2q-1 34 1 50q1 11 8 24t20 15q3 1 19 3
q3 0 6.5 2.5t9.5 2.5h4l19 4q10 2 17 -5q2 -2 5.5 -6t6 -6.5t3.5 -2.5q3 0 9 1t14 -1q6 -1 9.5 -4.5t5.5 -9t2.5 -9.5t0.5 -10v-7q4 -33 1 -44q-1 -4 0 -6t3 -2h1q14 0 10 -34q0 -3 -1 -5q-2 -5 -15 -13q-5 -3 -8 -8q-7 -16 -27 -32q-7 -5 -7 -14v-14v-1q1 -27 45 -33
q16 -3 28 -6t20.5 -8t12 -7t9.5 -9l6 -6q7 -7 10 -36q1 -8 -4.5 -14.5t-13.5 -6.5h-318v0zM190 215zM805 479h-208q-1 0 -1 1v57v1h1h208q1 0 1 -1v-57q0 -1 -1 -1zM805 349h-208q-1 0 -1 1v57q0 1 1 1h208q1 0 1 -1v-57q0 -1 -1 -1zM805 219h-208q-1 0 -1 1v57q0 1 1 1h208
q1 0 1 -1v-57q0 -1 -1 -1z" />
    <glyph glyph-name="uniE65F" unicode="&#xe65f;" horiz-adv-x="1025" 
d="M459 661h-1q7 11 7 23q0 20 -14 34t-34 14q-30 0 -43 -27v1l-130 -246h109zM567 661l106 -201h109l-130 246v-1q-14 27 -43 27q-20 0 -34 -14t-14 -34q0 -12 6 -23zM1025 364v4q-1 0 -1 2v1q-3 17 -15 28t-28 13h-4h-183h-11h-67h-3h-119h-1h-200h-2h-160h-182
q-20 0 -34 -14.5t-14 -34t14 -34t34 -14.5h42l103 -412q4 -16 17 -26t30 -10v0h523h14h7q16 0 29 10t17 26l103 412h43q20 0 34 14.5t14 33.5v1v0zM369 11q0 -20 -14 -34t-34 -14t-34 14t-14 34v256q0 20 14 34t34 14t34 -14t14 -34v-256zM561 11q0 -20 -14 -34t-34 -14
t-34 14t-14 34v256q0 20 14 34t34 14t34 -14t14 -34v-256zM753 11q0 -20 -14 -34t-34 -14t-34 14t-14 34v256q0 20 14 34t34 14t34 -14t14 -34v-256z" />
    <glyph glyph-name="uniE663" unicode="&#xe663;" 
d="M528 556q-16 15 -37 15t-37 -15l-352 -352q-16 -16 -16 -37.5t16 -36.5l241 -241q14 -14 36 -14t38 14l352 353q14 15 14 36.5t-14 36.5zM509 426l-259 -259q-8 -8 -18.5 -8t-18 7.5t-7.5 19t7 18.5l259 259q8 8 18.5 8t18.5 -8q7 -7 7 -18t-7 -19zM592 639
q-12 12 -28 12t-27 -12q-12 -12 -12 -28t12 -28l259 -259q12 -12 28 -12t27 12q12 12 12 28.5t-12 27.5zM926 657q12 12 11.5 28t-11.5 28q-12 12 -27.5 12t-27.5 -12q-12 -11 -12 -26.5t12 -27.5q-17 16 -39 23.5t-45.5 6t-47.5 -11.5t-45 -29v1q-7 8 -18 8t-18 -8
q-8 -8 -8 -19t7 -19l166 -166q8 -7 19 -7t19 7q8 8 8 18.5t-8 18.5v1q17 20 27.5 43.5t12 47.5t-6 45t-23.5 38q12 -11 27.5 -11t27.5 11z" />
    <glyph glyph-name="uniE669" unicode="&#xe669;" 
d="M40 445v-613q0 -18 13 -31t31 -13h856q18 0 31 13t13 31v612q-228 85 -474 85q-243 0 -470 -84zM787 153.5q0 -109.5 -77.5 -186.5t-186.5 -77t-186.5 77t-77.5 186.5t77.5 186.5t186.5 77t186.5 -77t77.5 -186.5zM523 -83q98 0 167 69.5t69 167.5t-69 167t-167 69
t-167.5 -69t-69.5 -167t69.5 -167.5t167.5 -69.5zM523 160q34 -20 60.5 -29t61 -6.5t67.5 24.5q4 -27 -7.5 -59t-34 -61.5t-62 -49t-85.5 -19.5q-79 0 -134.5 55t-55.5 134q23 30 58 38t67 -0.5t65 -26.5zM940 812h-856q-18 0 -31 -13t-13 -31v-287q227 84 472 84t472 -84
v287q0 18 -13 31t-31 13zM326 648h-205v81h205v-81zM656.5 647q-17.5 0 -30 12t-12.5 29.5t12.5 30t30 12.5t29.5 -12.5t12 -30t-12 -29.5t-29.5 -12zM753.5 647q-17.5 0 -29.5 12t-12 29.5t12 30t29.5 12.5t30 -12.5t12.5 -30t-12.5 -29.5t-30 -12zM852.5 647
q-17.5 0 -29.5 12t-12 29.5t12 30t29.5 12.5t29.5 -12.5t12 -30t-12 -29.5t-29.5 -12zM656.5 709q-8.5 0 -14.5 -6t-6 -14.5t6 -14.5t14.5 -6t14.5 6t6 14.5t-6 14.5t-14.5 6zM753.5 709q-8.5 0 -14 -6t-5.5 -14.5t5.5 -14.5t14 -6t14.5 6t6 14.5t-6 14.5t-14.5 6z
M852.5 709q-8.5 0 -14.5 -6t-6 -14.5t6 -14.5t14.5 -6t14.5 6t6 14.5t-6 14.5t-14.5 6zM520 -5q34 0 59.5 9.5t42 26t27 33t18.5 37.5q-21 -9 -40 -11.5t-38 2.5t-33.5 11.5t-35.5 18.5q-22 12 -37 19t-36 12.5t-40 1t-35 -18.5q0 -61 43 -101t105 -40z" />
    <glyph glyph-name="uniE671" unicode="&#xe671;" 
d="M884 451h-112q0 93 -76 158.5t-184 65.5t-184 -65.5t-76 -158.5h-112q-30 0 -52 -21.5t-22 -52.5v-448h892v448q0 31 -22 52.5t-52 21.5zM698 115h-112v-112h-148v112h-112v150h112v112h148v-112h112v-150zM326 451q0 62 54.5 106t131.5 44t131.5 -44t54.5 -106h-372z
" />
    <glyph glyph-name="uniE67A" unicode="&#xe67a;" 
d="M924 273v6q0 156 -103 272t-255 136v5v2q0 18 -13.5 31.5t-31.5 13.5t-31 -13t-14 -31v0v-1v0v-1v-4q-104 -9 -190 -65.5t-136 -147.5t-50 -197v-6h824zM512 595q109 0 195 -65t115 -168h-619q29 103 114.5 168t194.5 65zM925 219h-825q-15 0 -25 -10.5t-10 -25t10 -25
t25 -10.5h412h412q15 0 25.5 10t10.5 25t-10 25.5t-25 10.5zM679 84q-13 0 -24 -7l-221 -126h-244v53h172q18 1 30.5 14t12.5 31t-12.5 31t-30.5 14l-231 -1q-13 0 -22 -8.5t-9 -21.5v-171q0 -13 9 -22t22 -9h328v1l240 137q24 13 24 40q0 19 -13 32t-31 13zM679 84z" />
    <glyph glyph-name="uniE696" unicode="&#xe696;" 
d="M828 324q-43 0 -78 -25l-1 25q1 13 -7.5 20t-18.5 7h-632q-26 0 -26 -27v-106q0 -92 46 -170.5t125.5 -124.5t172.5 -46q110 0 198.5 63t124.5 162q39 -41 96 -41q54 0 92.5 38.5t38.5 93t-38.5 93t-92.5 38.5zM696 219q0 -125 -81.5 -207t-207.5 -82t-207.5 82
t-81.5 207v79h578v-79zM828 114q-29 0 -50.5 18t-27.5 46q3 19 3 39q8 24 28.5 39.5t46.5 15.5q32 0 55.5 -23.5t23.5 -56t-23.5 -55.5t-55.5 -23zM512 482q2 -25 10.5 -45.5t19.5 -31t22.5 -17.5t18.5 -9l8 -2q6 -5 16 4.5t10 21.5q0 10 -10 19t-21.5 16t-18.5 25.5
t-2 44.5q2 13 16 24t29 18.5t25.5 24t8.5 38.5q-4 19 -10.5 35t-13.5 26.5t-14.5 18.5t-14.5 12.5t-12.5 7.5t-9.5 5l-4 1q-7 4 -15.5 -0.5t-12.5 -11.5q-5 -7 -3 -15t9 -12q50 -36 49 -67q0 -11 -8 -19.5t-19.5 -16t-23 -18t-20 -30t-9.5 -47.5zM354 482q2 -25 10.5 -45.5
t20 -31t22.5 -17.5t19 -9l7 -2q6 -5 16 4.5t11 21.5q-1 10 -11 19t-21.5 16t-18.5 25.5t-2 44.5q2 13 16 24t29 18.5t25.5 24t8.5 38.5q-4 19 -10.5 35t-13.5 26.5t-14.5 18.5t-14.5 12.5t-12.5 7.5t-9.5 5l-4 1q-6 4 -15 -0.5t-13 -11.5q-5 -7 -3 -15t9 -12q50 -36 49 -67
q0 -11 -8 -19.5t-19.5 -16t-23 -18t-20 -30t-9.5 -47.5zM197 482q1 -25 9.5 -45.5t19.5 -31t23 -17.5t18.5 -9t8.5 -2q6 -5 15.5 4.5t10.5 21.5q-1 10 -11 19t-21 16t-18 25.5t-3 44.5q3 13 17 24t28.5 18.5t25.5 24t8 38.5q-4 19 -10 35t-13.5 26.5t-15 18.5t-14.5 12.5
t-12.5 7.5t-9.5 5l-4 1q-6 4 -14.5 -0.5t-13.5 -11.5q-4 -7 -2.5 -15t8.5 -12q50 -36 50 -67q-1 -11 -9 -19.5t-19 -16t-22.5 -18t-20 -30t-9.5 -47.5z" />
    <glyph glyph-name="uniE6AE" unicode="&#xe6ae;" 
d="M954 13h-884q-27 0 -45.5 18t-18.5 44v365h1012v-365q0 -26 -18.5 -44t-45.5 -18zM860 291h-127v-123h127v123zM6 693q0 26 18.5 44t45.5 18h884q27 0 45.5 -18t18.5 -44v-163h-1012v163z" />
    <glyph glyph-name="uniE6D2" unicode="&#xe6d2;" 
d="M653 556q0 -6 -4 -10.5t-11 -4.5h-551q-6 0 -10.5 4.5t-4.5 10.5v73q0 6 4.5 10.5t10.5 4.5h551q7 0 11 -4.5t4 -10.5v-73zM653 361q0 -6 -4 -10.5t-11 -4.5h-551q-6 0 -10.5 4.5t-4.5 10.5v73q0 6 4.5 10.5t10.5 4.5h551q7 0 11 -4.5t4 -10.5v-73zM653 166
q0 -6 -4 -10.5t-11 -4.5h-551q-6 0 -10.5 4.5t-4.5 10.5v73q0 6 4.5 10.5t10.5 4.5h551q7 0 11 -4.5t4 -10.5v-73zM653 -28q0 -7 -4 -11.5t-11 -4.5h-551q-6 0 -10.5 4.5t-4.5 11.5v72q0 7 4.5 11.5t10.5 4.5h551q7 0 11 -4.5t4 -11.5v-72zM866 342h20h50q8 0 10 4.5
t-3 10.5l-95 114q-5 6 -12.5 6t-12.5 -6l-95 -114q-6 -6 -3.5 -10.5t10.5 -4.5h50h19h62zM804 264h-19h-50q-8 0 -10.5 -4.5t3.5 -10.5l95 -114q5 -6 12.5 -6t12.5 6l95 114q5 6 3 10.5t-10 4.5h-50h-20h-62z" />
    <glyph glyph-name="uF0009" unicode="&#xf0009;" 
d="M923 191q-1 3 -6 18.5t-8 23.5t-8.5 21.5t-12 24.5t-13.5 20q-14 18 -32 36.5t-26.5 30t-14.5 29.5l-2 10q-2 6 -10 23t-19 32t-31.5 34t-46 32.5t-64 23t-83.5 9.5q-53 0 -100.5 -19t-75.5 -42t-51.5 -53t-30 -42t-10.5 -19q-3 -1 -9.5 -2.5t-24 -6.5t-34 -12t-36.5 -19
t-34 -26.5t-24 -35t-10 -43.5q0 -32 6.5 -56.5t16 -36t19 -19t16.5 -8.5l7 -2h4q10 -24 31.5 -39.5t48.5 -15.5t49 15.5t31 39.5h372q9 -24 31 -39.5t49 -15.5t49 15.5t31 39.5h22q4 2 12.5 9.5t18 26.5t3.5 38zM521 367h-191q3 5 9 14t26 32t43 39q23 17 51.5 30.5
t44.5 17.5l17 5v-138zM577 366v138q8 -1 21 -3t45 -12.5t54 -27t40 -40.5t24 -39l7 -16h-191z" />
    <glyph glyph-name="uF000B" unicode="&#xf000b;" 
d="M832 812h-640l-192 -318l461 -706h102l461 706zM906 494h-167l61 177zM741 739l-65 -198l-76 198h141zM423 739l-75 -197l-65 197h140zM504 739h16l97 -245h-210zM632 405l-120 -363l-119 363h239zM225 671l60 -177h-167zM476 -66l-302 471h142zM549 -64l160 469h141z
" />
  </font>
</defs>
</svg>
